<?xml version="1.0" standalone="no"?>
<!DOCTYPE svg PUBLIC "-//W3C//DTD SVG 20010904//EN"
 "http://www.w3.org/TR/2001/REC-SVG-20010904/DTD/svg10.dtd">
<svg version="1.0" xmlns="http://www.w3.org/2000/svg"
 width="1600.000000pt" height="1600.000000pt" viewBox="0 0 1600.000000 1600.000000"
 preserveAspectRatio="xMidYMid meet">
<metadata>
Created by potrace 1.16, written by Peter Selinger 2001-2019
</metadata>
<g transform="translate(0.000000,1600.000000) scale(0.100000,-0.100000)"
fill="#000000" stroke="none">
<path d="M6700 10221 c-130 -9 -180 -47 -201 -151 -7 -37 -10 -360 -11 -975 0
-1018 -3 -974 63 -1030 56 -47 72 -48 668 -54 l563 -6 -1 -210 c-1 -124 -6
-214 -12 -220 -6 -5 -47 -10 -92 -10 -45 0 -88 -4 -94 -8 -18 -11 -16 -44 3
-51 20 -8 932 -8 962 0 24 7 29 33 10 52 -7 7 -38 12 -69 12 -31 0 -70 3 -87
6 l-30 6 -7 204 c-4 113 -4 208 0 212 3 4 262 9 573 12 l567 5 50 25 c37 18
57 37 75 70 l25 45 0 960 c0 901 -1 963 -18 1007 -21 54 -45 73 -124 93 -49
13 -237 15 -1393 13 -734 0 -1373 -4 -1420 -7z m2826 -73 c17 -9 36 -30 43
-45 8 -21 11 -279 9 -996 l-3 -969 -32 -28 c-25 -22 -45 -30 -95 -35 -35 -3
-677 -5 -1428 -3 -1248 3 -1368 4 -1402 20 -20 9 -41 26 -48 37 -14 28 -14
1907 0 1962 13 46 31 61 83 70 23 4 672 6 1442 5 1298 -1 1402 -2 1431 -18z
m-1223 -2145 c2 -5 2 -104 -1 -220 l-4 -213 -219 0 -219 0 0 63 c0 34 -3 133
-7 220 l-6 157 226 0 c124 0 228 -3 230 -7z"/>
<path d="M8255 9668 c-17 -40 -318 -792 -386 -968 -27 -68 -49 -130 -49 -137
0 -19 45 -16 62 5 8 9 20 31 26 47 6 17 91 230 188 475 199 501 214 542 214
582 0 41 -36 39 -55 -4z"/>
<path d="M8565 9510 c-3 -6 -4 -18 -1 -28 6 -18 166 -110 429 -248 121 -63
157 -88 157 -109 0 -23 -47 -54 -260 -170 -325 -179 -325 -179 -325 -201 0
-47 47 -28 365 148 172 95 319 183 327 195 31 47 32 47 -342 250 -66 36 -163
89 -216 119 -95 54 -122 63 -134 44z"/>
<path d="M7449 9467 c-46 -24 -176 -95 -289 -159 -113 -63 -219 -123 -237
-132 -37 -19 -57 -49 -49 -74 4 -10 32 -30 64 -46 31 -15 174 -93 317 -174
185 -104 269 -145 294 -146 18 -1 36 4 38 11 7 20 -31 46 -194 132 -202 108
-336 185 -378 218 l-33 27 21 17 c30 23 300 177 482 274 79 42 105 62 105 82
0 25 -56 13 -141 -30z"/>
<path d="M5999 6840 c-6 -4 -9 -18 -7 -31 3 -23 28 -40 101 -68 l27 -11 0
-469 0 -470 23 -7 c34 -11 423 -5 476 7 25 6 82 28 127 50 98 46 152 101 201
204 29 62 36 92 45 184 13 141 1 228 -45 324 -63 131 -151 208 -295 254 -67
22 -99 26 -247 29 -93 2 -221 6 -282 7 -62 2 -118 0 -124 -3z m594 -99 c97
-25 149 -52 202 -106 134 -133 161 -391 62 -578 -57 -108 -130 -163 -247 -185
-88 -17 -360 -25 -376 -11 -12 9 -14 88 -14 449 0 240 3 440 7 443 3 4 70 7
148 7 108 0 160 -5 218 -19z"/>
<path d="M8816 6839 c-32 -5 -68 -17 -79 -26 -36 -33 -211 -266 -353 -470 -47
-68 -91 -123 -98 -123 -16 0 -43 30 -86 95 -66 98 -300 411 -349 465 l-49 55
-79 3 c-63 3 -82 1 -92 -12 -22 -27 -6 -43 50 -49 90 -11 83 26 89 -525 l5
-487 33 2 c18 0 36 4 40 8 4 4 8 174 9 378 1 205 2 397 3 427 l1 55 40 -45
c21 -25 81 -103 132 -175 142 -199 236 -315 256 -315 11 0 33 22 53 53 19 28
63 90 97 137 34 47 98 138 142 202 73 108 121 159 135 145 3 -3 9 -190 13
-416 4 -257 10 -414 16 -420 6 -6 41 -15 79 -20 72 -10 112 -3 122 24 11 28
-15 45 -72 45 -41 0 -56 4 -63 18 -5 10 -11 197 -12 444 -2 348 0 430 11 443
10 12 27 16 60 14 52 -3 70 5 70 29 -1 43 -34 55 -124 41z"/>
<path d="M9129 6831 c-21 -17 -24 -29 -27 -120 -5 -107 3 -131 39 -131 24 0
35 23 43 91 12 94 -13 88 358 91 l327 3 -5 -25 c-24 -107 -119 -214 -319 -359
-181 -132 -264 -201 -330 -273 -99 -110 -165 -282 -120 -314 29 -22 847 -20
868 1 19 18 32 128 22 184 -6 36 -10 41 -34 41 -38 0 -60 -27 -67 -83 -4 -26
-12 -53 -18 -61 -9 -12 -71 -15 -346 -18 -383 -3 -361 -10 -316 88 37 82 151
193 362 354 279 214 388 346 389 474 0 49 -1 50 -35 57 -19 4 -200 9 -402 12
-346 6 -368 5 -389 -12z"/>
<path d="M7160 6825 c-25 -31 -8 -50 54 -57 32 -4 62 -10 65 -14 3 -3 6 -201
6 -439 0 -494 5 -464 -85 -473 -55 -5 -74 -23 -49 -47 10 -9 62 -14 177 -18
151 -4 163 -3 173 14 21 39 -21 69 -97 69 -29 0 -26 -54 -24 480 1 418 2 427
41 415 43 -14 101 42 77 73 -16 19 -321 17 -338 -3z"/>
</g>
</svg>
